<svg xmlns="http://www.w3.org/2000/svg" viewBox="0 11.699999809265137 327.75 35.64999771118164" data-asc="0.935" width="327.75" height="35.64999771118164"><defs/><g fill="#f0f0f0"><g transform="translate(0, 0)"><path d="M23.05 46.75L20.45 38.10L7.40 38.10L4.80 46.75L0 46.75L11.05 12.30L17.05 12.30L28.05 46.75L23.05 46.75M8.55 34.25L19.30 34.25L13.95 16.25L8.55 34.25ZM38.10 12.30L38.10 42.60L52.25 42.60L51.70 46.75L33.35 46.75L33.35 12.30L38.10 12.30ZM63 12.30L63 42.60L77.15 42.60L76.60 46.75L58.25 46.75L58.25 12.30L63 12.30ZM108.70 11.70Q113.05 11.70 116.33 13.77Q119.60 15.85 121.43 19.85Q123.25 23.85 123.25 29.55Q123.25 35.15 121.43 39.15Q119.60 43.15 116.33 45.25Q113.05 47.35 108.70 47.35Q104.35 47.35 101.08 45.30Q97.80 43.25 95.98 39.25Q94.15 35.25 94.15 29.60Q94.15 24.05 95.98 20Q97.80 15.95 101.10 13.82Q104.40 11.70 108.70 11.70M108.70 15.60Q104.20 15.60 101.70 19Q99.20 22.40 99.20 29.60Q99.20 36.75 101.73 40.10Q104.25 43.45 108.70 43.45Q118.20 43.45 118.20 29.55Q118.20 15.60 108.70 15.60ZM154.60 35.70Q154.60 39.15 153.18 41.77Q151.75 44.40 149.03 45.88Q146.30 47.35 142.50 47.35Q136.75 47.35 133.63 44.17Q130.50 41 130.50 35.70L130.50 12.30L135.25 12.30L135.25 35.35Q135.25 39.35 137.05 41.35Q138.85 43.35 142.50 43.35Q146.20 43.35 148 41.38Q149.80 39.40 149.80 35.35L149.80 12.30L154.60 12.30L154.60 35.70ZM174.20 32.15L168.85 32.15L168.85 46.75L164.10 46.75L164.10 12.30L173.15 12.30Q179.60 12.30 182.93 14.75Q186.25 17.20 186.25 22.05Q186.25 25.65 184.40 27.90Q182.55 30.15 178.80 31.30L188.10 46.75L182.45 46.75L174.20 32.15M173.65 28.50Q177.40 28.50 179.30 26.97Q181.20 25.45 181.20 22.05Q181.20 18.85 179.28 17.42Q177.35 16 173.10 16L168.85 16L168.85 28.50L173.65 28.50ZM227.95 12.30L227.45 16.35L217.90 16.35L217.90 46.75L213.15 46.75L213.15 16.35L203.35 16.35L203.35 12.30L227.95 12.30ZM243.55 32.15L238.20 32.15L238.20 46.75L233.45 46.75L233.45 12.30L242.50 12.30Q248.95 12.30 252.27 14.75Q255.60 17.20 255.60 22.05Q255.60 25.65 253.75 27.90Q251.90 30.15 248.15 31.30L257.45 46.75L251.80 46.75L243.55 32.15M243 28.50Q246.75 28.50 248.65 26.97Q250.55 25.45 250.55 22.05Q250.55 18.85 248.63 17.42Q246.70 16 242.45 16L238.20 16L238.20 28.50L243 28.50ZM268.45 12.30L268.45 46.75L263.70 46.75L263.70 12.30L268.45 12.30ZM287.50 12.30Q293.90 12.30 297.40 14.97Q300.90 17.65 300.90 22.95Q300.90 28.60 297.25 31.35Q293.60 34.10 287.55 34.10L283.20 34.10L283.20 46.75L278.45 46.75L278.45 12.30L287.50 12.30M287.35 30.35Q291.50 30.35 293.68 28.75Q295.85 27.15 295.85 23Q295.85 19.30 293.68 17.65Q291.50 16 287.45 16L283.20 16L283.20 30.35L287.35 30.35ZM316 11.70Q319.45 11.70 321.90 12.67Q324.35 13.65 326.65 15.70L324.05 18.60Q322.10 17.05 320.23 16.32Q318.35 15.60 316.20 15.60Q313.50 15.60 311.75 16.85Q310 18.10 310 20.50Q310 22 310.60 23.02Q311.20 24.05 312.82 24.90Q314.45 25.75 317.55 26.70Q320.80 27.70 322.95 28.85Q325.10 30 326.43 32.02Q327.75 34.05 327.75 37.15Q327.75 40.15 326.27 42.45Q324.80 44.75 322.02 46.05Q319.25 47.35 315.45 47.35Q308.30 47.35 303.75 42.90L306.35 40Q308.45 41.70 310.60 42.58Q312.75 43.45 315.40 43.45Q318.60 43.45 320.70 41.88Q322.80 40.30 322.80 37.30Q322.80 35.60 322.15 34.48Q321.50 33.35 319.93 32.45Q318.35 31.55 315.35 30.65Q310.05 29.05 307.60 26.80Q305.15 24.55 305.15 20.70Q305.15 18.10 306.52 16.05Q307.90 14 310.38 12.85Q312.85 11.70 316 11.70Z"/></g></g></svg>