<svg width="1438" height="199" viewBox="0 0 1438 199" fill="none" xmlns="http://www.w3.org/2000/svg">
<path d="M995.785 23.3674C1005.52 23.3674 1010.38 26.4617 1010.38 32.6503C1010.38 35.5526 1009.72 38.028 1008.4 40.0767C1007.07 42.0826 1004.7 43.6618 1001.29 44.8142C997.876 45.9238 993.139 46.4787 987.078 46.4787H958.269C958.61 38.1987 958.781 30.4523 958.781 23.2393C958.781 16.0264 958.61 8.27995 958.269 0H973.314V0.0640194H986.95C992.242 0.0640194 996.404 0.51216 999.434 1.40844C1002.51 2.26205 1004.66 3.52111 1005.9 5.18564C1007.18 6.85016 1007.82 8.96283 1007.82 11.5236C1007.82 14.1271 1006.9 16.4532 1005.07 18.5018C1003.28 20.5078 1000.18 22.1297 995.785 23.3674ZM973.314 11.7157V17.6696H985.606C988.252 17.6696 990.087 17.4348 991.111 16.9654C992.178 16.4959 992.712 15.6423 992.712 14.4046C992.712 13.4229 992.157 12.74 991.047 12.3559C989.98 11.9291 988.166 11.7157 985.606 11.7157H973.314ZM985.606 34.763C987.825 34.763 989.511 34.6776 990.663 34.5069C991.858 34.2935 992.712 33.9521 993.224 33.4826C993.736 32.9704 993.992 32.2875 993.992 31.4339C993.992 30.3243 993.373 29.5347 992.136 29.0652C990.941 28.553 988.764 28.2969 985.606 28.2969H973.314V34.763H985.606Z" fill="white"/>
<path d="M1044.54 0.0640194C1053.03 0.0640194 1058.94 1.57916 1062.27 4.60945C1065.6 7.59707 1067.27 11.8224 1067.27 17.2855C1067.27 21.0413 1066.61 24.2423 1065.28 26.8885C1063.96 29.492 1061.63 31.5406 1058.3 33.0344C1054.98 34.4856 1050.39 35.2111 1044.54 35.2111H1031.22V46.4787H1015.47C1015.82 38.1987 1015.99 30.4523 1015.99 23.2393C1015.99 16.0264 1015.82 8.27995 1015.47 0H1031.22V0.0640194H1044.54ZM1040.06 22.8552C1043.6 22.8552 1046.25 22.7272 1048 22.4711C1049.79 22.1723 1051.03 21.6602 1051.71 20.9346C1052.44 20.2091 1052.8 19.142 1052.8 17.7336C1052.8 16.3252 1052.46 15.2795 1051.77 14.5966C1051.13 13.871 1049.92 13.3802 1048.12 13.1241C1046.37 12.8681 1043.69 12.74 1040.06 12.74H1031.22V22.8552H1040.06Z" fill="white"/>
<path d="M1087.48 34.763C1103.69 34.6776 1115.45 34.4429 1122.75 34.0588C1122.45 35.8086 1122.26 37.6226 1122.18 39.5005C1122.13 41.3357 1122.11 43.6618 1122.11 46.4787H1072.37C1072.71 38.1987 1072.88 30.4523 1072.88 23.2393C1072.88 16.0264 1072.71 8.27995 1072.37 0H1122.11V11.5877H1087.48V17.7336C1089.52 17.7763 1092.56 17.7976 1096.57 17.7976C1103.35 17.7976 1110.37 17.6696 1117.63 17.4135V28.425C1110.37 28.1689 1103.35 28.0409 1096.57 28.0409C1092.56 28.0409 1089.52 28.0622 1087.48 28.1049V34.763Z" fill="white"/>
<path d="M1187.74 0L1192.74 46.4787H1176.16L1175.13 13.3162L1168.73 46.4787H1151.96L1145.43 13.5723L1144.47 46.4787H1127.89L1132.88 0H1154.65L1160.22 30.2816L1165.08 0H1187.74Z" fill="white"/>
<path d="M1249.25 0C1248.95 7.21294 1248.8 14.9594 1248.8 23.2393C1248.8 31.5193 1248.95 39.2657 1249.25 46.4787H1234.14V31.626H1224.73C1220.68 38.028 1217.71 42.9789 1215.83 46.4787H1198.42L1208.79 32.0741C1209.01 31.69 1209.37 31.1565 1209.88 30.4736C1205.48 29.3213 1202.37 27.4647 1200.53 24.9039C1198.74 22.3431 1197.84 19.2061 1197.84 15.4929C1197.84 10.7554 1199.55 6.99954 1202.97 4.22533C1206.38 1.45112 1212.4 0.0640194 1221.02 0.0640194H1234.14V0H1249.25ZM1234.14 19.6542V12.3559H1225.5C1221.83 12.3559 1219.06 12.4626 1217.18 12.676C1215.3 12.8894 1214.02 13.2522 1213.34 13.7643C1212.65 14.2765 1212.31 15.0021 1212.31 15.941C1212.31 16.9227 1212.68 17.6696 1213.4 18.1817C1214.13 18.6939 1215.41 19.078 1217.24 19.3341C1219.12 19.5475 1221.87 19.6542 1225.5 19.6542H1234.14Z" fill="white"/>
<path d="M1320.89 35.0831H1323.52V57.042H1308.34V47.7591H1279.79V57.2341H1264.62V35.0831H1267.82C1269.65 34.7416 1271.06 33.9947 1272.04 32.8424C1273.03 31.69 1273.75 29.8548 1274.22 27.3366C1274.61 25.2453 1274.8 20.4865 1274.8 13.0601L1274.73 0L1320.89 0.0640194V35.0831ZM1289.14 32.3302C1288.88 33.5253 1288.65 34.4429 1288.43 35.0831H1304.69V12.548H1290.35L1290.29 16.2611C1290.29 19.5048 1290.2 22.3644 1290.03 24.8398C1289.91 27.2726 1289.61 29.7694 1289.14 32.3302Z" fill="white"/>
<path d="M1381.45 46.4787H1365.26V12.548H1350.91L1350.85 16.2611C1350.85 19.5048 1350.77 22.3644 1350.59 24.8398C1350.47 27.2726 1350.17 29.7694 1349.7 32.3302C1348.84 36.9824 1346.67 40.7169 1343.17 43.5338C1339.71 46.3507 1334.87 47.7591 1328.64 47.7591V35.2751C1330.3 34.9337 1331.6 34.1868 1332.54 33.0344C1333.52 31.8394 1334.27 29.9401 1334.78 27.3366C1335.17 25.2453 1335.36 20.4865 1335.36 13.0601L1335.29 0L1381.45 0.0640194V46.4787Z" fill="white"/>
<path d="M1438 0C1437.7 7.21294 1437.55 14.9594 1437.55 23.2393C1437.55 31.5193 1437.7 39.2657 1438 46.4787H1422.89V31.626H1413.48C1409.43 38.028 1406.46 42.9789 1404.58 46.4787H1387.17L1397.54 32.0741C1397.75 31.69 1398.12 31.1565 1398.63 30.4736C1394.23 29.3213 1391.12 27.4647 1389.28 24.9039C1387.49 22.3431 1386.59 19.2061 1386.59 15.4929C1386.59 10.7554 1388.3 6.99954 1391.71 4.22533C1395.13 1.45112 1401.15 0.0640194 1409.77 0.0640194H1422.89V0H1438ZM1422.89 19.6542V12.3559H1414.25C1410.58 12.3559 1407.8 12.4626 1405.93 12.676C1404.05 12.8894 1402.77 13.2522 1402.08 13.7643C1401.4 14.2765 1401.06 15.0021 1401.06 15.941C1401.06 16.9227 1401.42 17.6696 1402.15 18.1817C1402.87 18.6939 1404.15 19.078 1405.99 19.3341C1407.87 19.5475 1410.62 19.6542 1414.25 19.6542H1422.89Z" fill="white"/>
<path d="M117.197 81.2197C116.52 97.5615 116.182 115.112 116.182 133.871C116.182 152.631 116.52 170.181 117.197 186.523H83.1113V110.519H34.0858V186.523H0C0.773578 167.764 1.16037 150.213 1.16037 133.871C1.16037 117.529 0.773578 99.9789 0 81.2197H117.197Z" fill="white"/>
<path d="M238.266 81.2197C237.879 82.2833 237.396 83.492 236.816 84.8458C236.235 86.1029 235.655 87.5533 235.075 89.1972C229.757 102.348 224.825 114.193 220.28 124.733C215.832 135.177 210.514 147.07 204.325 160.415C198.91 172.018 190.981 181.301 180.538 188.263C170.191 195.322 157.137 198.707 141.376 198.417C139.345 190.004 137.701 183.67 136.444 179.416C135.284 175.064 133.688 170.616 131.657 166.071C137.363 167.329 142.633 167.957 147.467 167.957C152.206 167.957 156.46 167.329 160.231 166.071C153.269 148.182 140.844 119.899 122.955 81.2197H159.071L182.133 135.467L186.195 125.749C196.251 101.865 201.908 87.0215 203.165 81.2197H238.266Z" fill="white"/>
<path d="M370.492 111.679C355.311 111.196 340.565 110.906 326.253 110.809V186.523H289.992V110.809C275.584 110.906 260.886 111.196 245.898 111.679V81.2197H370.492V111.679Z" fill="white"/>
<path d="M416.393 159.98C453.138 159.786 479.778 159.254 496.313 158.384C495.636 162.349 495.201 166.458 495.007 170.713C494.911 174.871 494.862 180.141 494.862 186.523H382.162C382.935 167.764 383.322 150.213 383.322 133.871C383.322 117.529 382.935 99.9789 382.162 81.2197H494.862V107.473H416.393V121.397C421.034 121.494 427.9 121.542 436.989 121.542C452.364 121.542 468.271 121.252 484.709 120.672V145.62C468.271 145.04 452.364 144.75 436.989 144.75C427.9 144.75 421.034 144.798 416.393 144.895V159.98Z" fill="white"/>
<path d="M639.645 81.2197C638.968 97.5615 638.63 115.112 638.63 133.871C638.63 152.631 638.968 170.181 639.645 186.523H507.944C508.717 167.764 509.104 150.213 509.104 133.871C509.104 117.529 508.717 99.9789 507.944 81.2197H542.03V157.224H558.855V81.2197H590.33V157.224H605.56V81.2197H639.645Z" fill="white"/>
<path d="M685.521 159.98C722.266 159.786 748.906 159.254 765.441 158.384C764.764 162.349 764.329 166.458 764.135 170.713C764.039 174.871 763.99 180.141 763.99 186.523H651.29C652.063 167.764 652.45 150.213 652.45 133.871C652.45 117.529 652.063 99.9789 651.29 81.2197H763.99V107.473H685.521V121.397C690.162 121.494 697.028 121.542 706.117 121.542C721.492 121.542 737.399 121.252 753.837 120.672V145.62C737.399 145.04 721.492 144.75 706.117 144.75C697.028 144.75 690.162 144.798 685.521 144.895V159.98Z" fill="white"/>
<path d="M840.892 187.973C819.038 187.973 802.938 183.332 792.592 174.049C782.245 164.766 777.072 151.519 777.072 134.306C777.072 116.998 782.245 103.315 792.592 93.2585C802.938 83.202 819.038 78.1737 840.892 78.1737C871.448 78.1737 891.9 88.6654 902.246 109.649C893.544 112.646 883.342 117.143 871.642 123.138C868.837 117.723 864.389 113.71 858.297 111.099C852.302 108.488 846.162 107.183 839.877 107.183C830.594 107.183 823.68 109.649 819.135 114.58C814.59 119.415 812.318 125.41 812.318 132.566C812.318 140.302 814.735 146.635 819.57 151.567C824.502 156.402 831.996 158.819 842.052 158.819C850.078 158.819 856.46 157.514 861.198 154.903C865.937 152.195 869.418 147.941 871.642 142.139C879.571 146.394 889.724 151.18 902.101 156.498C897.266 168.199 889.192 176.37 877.879 181.011C866.565 185.653 854.236 187.973 840.892 187.973Z" fill="white"/>
<path d="M1038.5 111.679C1023.32 111.196 1008.57 110.906 994.258 110.809V186.523H957.996V110.809C943.588 110.906 928.89 111.196 913.902 111.679V81.2197H1038.5V111.679Z" fill="white"/>
<path d="M1135.16 134.161C1157.21 134.161 1168.23 141.172 1168.23 155.193C1168.23 161.768 1166.73 167.377 1163.74 172.018C1160.74 176.563 1155.37 180.141 1147.64 182.752C1139.9 185.266 1129.17 186.523 1115.44 186.523H1050.17C1050.94 167.764 1051.33 150.213 1051.33 133.871C1051.33 117.529 1050.94 99.9789 1050.17 81.2197H1084.25V81.3647H1115.15C1127.14 81.3647 1136.56 82.38 1143.43 84.4107C1150.39 86.3446 1155.28 89.1972 1158.08 92.9684C1160.98 96.7396 1162.43 101.526 1162.43 107.328C1162.43 113.226 1160.35 118.496 1156.19 123.138C1152.13 127.683 1145.12 131.357 1135.16 134.161ZM1084.25 107.763V121.252H1112.1C1118.1 121.252 1122.25 120.72 1124.57 119.657C1126.99 118.593 1128.2 116.659 1128.2 113.855C1128.2 111.631 1126.94 110.084 1124.43 109.214C1122.01 108.247 1117.9 107.763 1112.1 107.763H1084.25ZM1112.1 159.98C1117.13 159.98 1120.95 159.786 1123.56 159.399C1126.27 158.916 1128.2 158.142 1129.36 157.079C1130.52 155.918 1131.1 154.371 1131.1 152.437C1131.1 149.923 1129.7 148.134 1126.9 147.07C1124.19 145.91 1119.26 145.33 1112.1 145.33H1084.25V159.98H1112.1Z" fill="white"/>
<path d="M1215.31 81.3647L1212.84 162.735L1248.09 81.3647H1301.47C1300.79 97.7065 1300.45 115.209 1300.45 133.871C1300.45 152.631 1300.79 170.181 1301.47 186.523H1264.19L1266.8 107.328L1231.7 186.523H1179.77C1180.55 167.764 1180.93 150.213 1180.93 133.871C1180.93 117.626 1180.55 100.124 1179.77 81.3647H1215.31Z" fill="white"/>
<path d="M1348.6 81.3647L1346.13 162.735L1381.38 81.3647H1434.75C1434.08 97.7065 1433.74 115.209 1433.74 133.871C1433.74 152.631 1434.08 170.181 1434.75 186.523H1397.48L1400.09 107.328L1364.99 186.523H1313.06C1313.84 167.764 1314.22 150.213 1314.22 133.871C1314.22 117.626 1313.84 100.124 1313.06 81.3647H1348.6Z" fill="white"/>
</svg>
